<?xml version="1.0" encoding="UTF-8"?>
<svg id="Layer_1" xmlns="http://www.w3.org/2000/svg" xmlns:xlink="http://www.w3.org/1999/xlink" version="1.1" viewBox="0 0 1080 1080">
  <defs>
    <style>
      .st0 {
        fill: none;
      }

      .st1 {
        fill: #5e3c32;
      }

      .st2 {
        fill: #c14423;
      }

      .st3 {
        fill: #e29e86;
      }

      .st4 {
        fill: #1e1d1c;
      }

      .st5 {
        fill: #3b6d11;
      }

      .st6 {
        fill: #381c13;
      }

      .st7 {
        fill: #ffcab3;
      }

      .st8 {
        fill: #8e5542;
      }

      .st9 {
        clip-path: url(#clippath);
      }
    </style>
    <clipPath id="clippath">
      <circle class="st0" cx="540" cy="540" r="540"/>
    </clipPath>
  </defs>
  <circle class="st5" cx="540" cy="540" r="540"/>
  <circle class="st0" cx="-739.08" cy="-276.21" r="540"/>
  <g class="st9">
    <g>
      <path class="st7" d="M632.03,467.99c-4.3-10.65-5.52-22.37-3.27-33.64,7.43-37.14,23.18-67.99,58.88-77.54,41.4-11.08,72.19,63.29,31.37,122.84-20,29.17-49.08,27.54-64.02,24.24-5.9-1.3-10.72-5.53-12.99-11.17l-9.98-24.73Z"/>
      <path class="st7" d="M375.28,347.15c6.69-59.3,58.99-196.11,215.89-149.89,107.65,31.71,117.35,150.97,102.31,212.94-15.04,61.96-74.21,209.22-74.21,209.22l-243.99-272.26Z"/>
      <path class="st7" d="M973.74,830.47l-139.08,623.29,112.23,388.87H37.8l106.36-992.21,314.47-133.43,1.76-123.85,204.37-116.62-2.72,189.67c-.34,23.91,14.77,45.28,37.32,52.76l175.8,58.34c35.99,11.94,69.25,30.07,98.59,53.17Z"/>
      <path class="st1" d="M527.61,645.97c48.43-7.12,109.49-44.33,132.58-106.82l-147.91,20.17-66.86,27.39-.38,7.62c-1.62,32.34,38.71,58.08,82.57,51.64Z"/>
      <path class="st7" d="M617.8,367.67c.33,47.99,29.17,68.52,29.17,68.52l17.78,40.33s-.05,23.79-15.51,50.28c-65.79,112.68-192.92,101.24-238.12,57.07-53.09-51.88-40.84-137.76-40.84-137.76,0,0,6.6-51.29,5.01-68.65-1.35-14.79-.56-28.34,1.14-39.96,3.45-23.52,23.4-40.96,47-40.96h115.25c19.9,0,37.4,12.57,44.66,31.23,6.35,16.34,17.06,34.12,34.47,39.9Z"/>
      <path class="st2" d="M671.99,422.18c3.13.02,2.38,7.54,2.13,19.95-.4,14.9-.88,36.39-.98,56.87-1.17,23.85,3.32,41.79-6.05,60.72-33.6,54.82-231.17,105.31-282.76,6.39-18.26-30.39-16.19-64.69-14.33-78.11.46-2.61,1.24-4.95,3.38-6.39,5.6-2.83,11.18-1.69,18.99-1.55,16.01.86,33.66,2.71,49.78,3.1,17.57.61,33.93-7.15,52.38-8.92,29.38-3.37,61.5,1.76,87.45,8.57,5.51,1.33,8.08,3.24,12.75,2.22,5.86-2.12,10.89-7.49,15.99-11.62,13.78-11.98,38.31-33.71,50.63-44.31,3.4-2.61,6.62-6.1,10.41-6.93h.23Z"/>
      <path class="st7" d="M561,520.22c.58,14.25-25.51,41.83-62.53,42.98-37.02,1.15-65.56-15.61-66.14-29.87-.58-14.25,25.31-5.36,62.33-6.52,37.02-1.15,65.76-20.85,66.34-6.6Z"/>
      <g>
        <path class="st6" d="M426.19,396.38c0,9.76-7.85,17.67-17.54,17.67s-17.54-7.91-17.54-17.67,7.85-17.67,17.54-17.67,17.54,7.91,17.54,17.67Z"/>
        <path class="st6" d="M551.21,396.38c0,9.76-7.85,17.67-17.54,17.67s-17.54-7.91-17.54-17.67,7.85-17.67,17.54-17.67,17.54,7.91,17.54,17.67Z"/>
      </g>
      <path class="st8" d="M569.51,365.79c-1.11,0-2.24-.25-3.3-.79-35.28-17.76-64.57-.97-65.79-.24-3.51,2.07-8.04.89-10.11-2.64-2.07-3.53-.92-8.08,2.58-10.17,1.5-.9,37.24-21.76,79.93-.26,3.65,1.84,5.13,6.31,3.31,9.99-1.29,2.61-3.91,4.12-6.62,4.12Z"/>
      <path class="st8" d="M439.03,365.79c-1.11,0-2.24-.25-3.3-.79-35.27-17.76-64.56-.97-65.79-.24-3.51,2.07-8.04.89-10.11-2.64-2.07-3.53-.92-8.08,2.58-10.17,1.5-.9,37.24-21.76,79.93-.26,3.65,1.84,5.13,6.31,3.31,9.99-1.3,2.61-3.91,4.12-6.62,4.12Z"/>
      <path class="st3" d="M472.85,455.88c-5.2,0-10.07-2.44-13.36-6.68-3.51-4.52-4.73-10.34-3.35-15.96,2.11-8.58,4.9-15.15,5.69-16.93l5.46-31.84c.35-2.03,2.27-3.39,4.27-3.03,2.01.35,3.36,2.28,3.01,4.3l-5.54,32.31c-.06.32-.16.64-.29.94-.03.07-3.17,6.9-5.42,16.04-.83,3.38-.11,6.88,1.99,9.58,1.82,2.34,4.43,3.72,7.22,3.82l14.08-2.74c1.99-.39,3.94.93,4.33,2.95.39,2.02-.92,3.97-2.93,4.36l-14.46,2.81c-.23.04-.46.07-.7.07Z"/>
      <path class="st6" d="M488.65,551.64c-12.81,0-26.58-3.05-40.4-11.02-1.77-1.02-2.38-3.29-1.37-5.08s3.27-2.4,5.04-1.38c38.1,21.95,75.76,2.98,90.35-10.13,1.53-1.37,3.86-1.23,5.22.3,1.36,1.53,1.22,3.89-.3,5.26-10.68,9.59-32.65,22.05-58.53,22.05Z"/>
      <path class="st4" d="M875.15,777.3c78.45,26.03,144.13,81.13,183.75,154.12h0c20.72,38.18,33.69,80.14,38.15,123.42l81.17,787.79h-250.03l-86.94-1076.58,33.9,11.25Z"/>
      <path class="st4" d="M37.8,1842.63l56.59-974.13,361.5-150.34c2.2,91.88,140.38,70.43,222.52-12.06,86.63,30.77,162.86,59.95,162.86,59.95,86.35,99.12,68.85,254.74,39,483.39l-45.59,204.32,112.23,388.87H37.8Z"/>
      <path class="st3" d="M698.6,475.02c-1.47,0-2.86-.89-3.44-2.35-8.47-21.52-4.99-55.07,18.14-74.88,1.56-1.33,3.89-1.14,5.21.43,1.32,1.57,1.13,3.92-.42,5.25-20.51,17.56-23.58,47.35-16.06,66.46.75,1.91-.18,4.07-2.07,4.83-.45.18-.91.26-1.36.26Z"/>
      <path class="st3" d="M695.88,439.54c-1.58,0-3.05-1.03-3.53-2.64-.6-1.96.5-4.05,2.45-4.65l16.76-5.16c1.95-.6,4.02.5,4.61,2.47.6,1.96-.5,4.05-2.45,4.65l-16.76,5.16c-.36.11-.72.16-1.08.16Z"/>
    </g>
  </g>
</svg>
