<?xml version="1.0" encoding="UTF-8"?>
<svg id="Layer_1" xmlns="http://www.w3.org/2000/svg" xmlns:xlink="http://www.w3.org/1999/xlink" version="1.1" viewBox="0 0 724.73 724.73">
  <defs>
    <style>
      .st0 {
        stroke: #8e5542;
        stroke-width: 6px;
      }

      .st0, .st1, .st2, .st3, .st4, .st5 {
        fill: none;
      }

      .st0, .st2, .st3, .st4, .st5 {
        stroke-linecap: round;
        stroke-linejoin: round;
      }

      .st6 {
        fill: #181919;
      }

      .st7 {
        fill: #5e3c32;
      }

      .st8 {
        fill: #c14423;
      }

      .st9 {
        fill: #1e1d1c;
      }

      .st10 {
        fill: #bdd670;
      }

      .st11 {
        fill: #9d4c3c;
      }

      .st12 {
        fill: #fff;
      }

      .st2, .st3, .st5 {
        stroke-width: 3px;
      }

      .st2, .st4 {
        stroke: #181919;
      }

      .st3 {
        stroke: #e29e86;
      }

      .st13 {
        fill: #b66f53;
      }

      .st14 {
        fill: #381c13;
      }

      .st15 {
        fill: #ffcab3;
      }

      .st16 {
        fill: #773a32;
      }

      .st4 {
        stroke-width: 2px;
      }

      .st17 {
        fill: #933728;
      }

      .st18 {
        fill: #d06139;
      }

      .st19 {
        clip-path: url(#clippath);
      }

      .st5 {
        stroke: #381c13;
      }
    </style>
    <clipPath id="clippath">
      <circle class="st1" cx="362.37" cy="330.24" r="302.36"/>
    </clipPath>
  </defs>
  <g class="st19">
    <path class="st15" d="M526.44,255.73c-1.75-4.29-2.24-9.01-1.33-13.56,3.02-14.97,9.41-27.4,23.91-31.25,16.81-4.47,29.31,25.51,12.73,49.51-8.12,11.76-19.93,11.1-25.99,9.77-2.39-.52-4.35-2.23-5.27-4.5l-4.05-9.97Z"/>
    <path class="st15" d="M422.21,207.03c2.72-23.9,23.95-79.04,87.65-60.42,43.7,12.78,47.64,60.85,41.54,85.82-6.11,24.97-30.13,84.33-30.13,84.33l-99.05-109.74Z"/>
    <path class="st15" d="M665.17,401.83l-56.46,251.22,45.56,156.73h-369.07l43.18-399.91,127.67-53.78.71-49.92,82.97-47-1.1,76.45c-.14,9.64,6,18.25,15.15,21.27l71.37,23.51c14.61,4.81,28.11,12.12,40.02,21.43Z"/>
    <path class="st7" d="M484.05,327.47c19.66-2.87,44.45-17.87,53.82-43.05l-60.05,8.13-27.14,11.04-.16,3.07c-.66,13.03,15.72,23.41,33.52,20.81Z"/>
    <path class="st15" d="M520.67,215.3c.13,19.34,11.84,27.62,11.84,27.62l7.22,16.25s-.02,9.59-6.3,20.27c-26.71,45.42-78.32,40.8-96.67,23-21.55-20.91-16.58-55.52-16.58-55.52,0,0,2.68-20.67,2.03-27.67-.55-5.96-.23-11.42.46-16.11,1.4-9.48,9.5-16.51,19.08-16.51h46.79c8.08,0,15.18,5.06,18.13,12.59,2.58,6.58,6.92,13.75,14,16.08Z"/>
    <path class="st8" d="M542.67,237.27c1.27,0,.97,3.04.87,8.04-.16,6.01-.36,14.67-.4,22.92-.47,9.61,1.35,16.84-2.46,24.47-13.64,22.1-93.85,42.44-114.79,2.57-7.41-12.25-6.57-26.07-5.82-31.48.19-1.05.51-1.99,1.37-2.57,2.27-1.14,4.54-.68,7.71-.62,6.5.35,13.67,1.09,20.21,1.25,7.13.25,13.77-2.88,21.27-3.59,11.93-1.36,24.97.71,35.5,3.46,2.24.54,3.28,1.3,5.18.89,2.38-.86,4.42-3.02,6.49-4.68,5.59-4.83,15.55-13.59,20.55-17.86,1.38-1.05,2.69-2.46,4.22-2.79h.09Z"/>
    <path class="st15" d="M497.61,276.78c.24,5.74-10.36,16.86-25.39,17.32-15.03.46-26.62-6.29-26.85-12.04-.24-5.74,10.27-2.16,25.3-2.63,15.03-.46,26.7-8.4,26.93-2.66Z"/>
    <g>
      <path class="st14" d="M442.88,226.87c0,3.93-3.19,7.12-7.12,7.12s-7.12-3.19-7.12-7.12,3.19-7.12,7.12-7.12,7.12,3.19,7.12,7.12Z"/>
      <path class="st14" d="M493.63,226.87c0,3.93-3.19,7.12-7.12,7.12s-7.12-3.19-7.12-7.12,3.19-7.12,7.12-7.12,7.12,3.19,7.12,7.12Z"/>
    </g>
    <path class="st0" d="M471.49,211.54s13.51-8.03,29.58,0"/>
    <path class="st0" d="M418.52,211.54s13.51-8.03,29.58,0"/>
    <path class="st3" d="M461.04,222.32l-2.25,13.02s-1.33,2.85-2.3,6.74c-.91,3.67,1.75,7.26,5.33,7.26l5.87-1.13"/>
    <path class="st5" d="M491,279.44c-6.38,5.68-22.27,13.5-38.42,4.26"/>
    <path class="st9" d="M625.15,380.4c31.85,10.49,58.51,32.7,74.6,62.12h0c8.41,15.39,13.68,32.3,15.49,49.75l32.95,317.52h-101.51l-35.3-433.92,13.76,4.53Z"/>
    <path class="st9" d="M285.2,809.78l22.97-392.63,146.76-60.6c.89,37.03,56.99,28.39,90.34-4.86,35.17,12.4,66.11,24.16,66.11,24.16,35.05,39.95,27.95,102.68,15.83,194.83l-18.51,82.35,45.56,156.73h-369.07Z"/>
    <path class="st3" d="M560.41,228.58c-8.68,7.38-10.29,20.03-6.94,28.48"/>
    <line class="st3" x1="552.37" y1="242.77" x2="559.17" y2="240.69"/>
    <path class="st6" d="M382.86,266.82c0-4.75-2.45-8.92-6.15-11.33,2.63-2.47,4.29-5.97,4.29-9.86,0-5.95-3.85-11-9.19-12.81.2-.92.31-1.88.31-2.86,0-7.48-6.06-13.54-13.54-13.54-.79,0-1.57.08-2.33.21-1.68-5.56-6.84-9.62-12.95-9.62-2.32,0-4.51.59-6.42,1.62-2.45-3.47-6.49-5.75-11.06-5.75s-8.9,2.44-11.32,6.13c-2.06-1.26-4.47-2-7.06-2-7.48,0-13.54,6.06-13.54,13.54,0,.06,0,.12,0,.18-.68-.1-1.37-.18-2.07-.18-7.48,0-13.54,6.06-13.54,13.54,0,1.62.3,3.16.82,4.6-5.25,1.86-9.02,6.86-9.02,12.75,0,5.2,2.93,9.7,7.23,11.97-2.3,2.43-3.72,5.69-3.72,9.3,0,5.81,3.67,10.76,8.82,12.67-.22.97-.35,1.98-.35,3.02,0,7.48,6.06,13.54,13.54,13.54.17,0,.33-.02.5-.03,1.58,5.73,6.81,9.94,13.04,9.94,3.13,0,6-1.07,8.29-2.85,2.38,3.88,6.65,6.48,11.53,6.48s9.05-2.54,11.45-6.34c1.98,1.14,4.27,1.8,6.72,1.8,6.95,0,12.67-5.24,13.44-11.98.03,0,.06,0,.1,0,7.48,0,13.54-6.06,13.54-13.54,0-1.99-.44-3.87-1.21-5.57,5.68-1.61,9.84-6.82,9.84-13.01Z"/>
    <path class="st6" d="M378.09,340.12c0-4.75-2.45-8.92-6.15-11.33,2.63-2.47,4.29-5.97,4.29-9.86,0-5.95-3.85-11-9.19-12.81.2-.92.31-1.88.31-2.86,0-7.48-6.06-13.54-13.54-13.54-.79,0-1.57.08-2.33.21-1.68-5.56-6.84-9.62-12.95-9.62-2.32,0-4.51.59-6.42,1.62-2.45-3.47-6.49-5.75-11.06-5.75s-8.9,2.44-11.32,6.13c-2.06-1.26-4.47-2-7.06-2-7.48,0-13.54,6.06-13.54,13.54,0,.06,0,.12,0,.18-.68-.1-1.37-.18-2.07-.18-7.48,0-13.54,6.06-13.54,13.54,0,1.62.3,3.16.82,4.6-5.25,1.86-9.02,6.86-9.02,12.75,0,5.2,2.93,9.7,7.23,11.97-2.3,2.43-3.72,5.69-3.72,9.3,0,5.81,3.67,10.76,8.82,12.67-.22.97-.35,1.98-.35,3.02,0,7.48,6.06,13.54,13.54,13.54.17,0,.33-.02.5-.03,1.58,5.73,6.81,9.94,13.04,9.94,3.13,0,6-1.07,8.29-2.85,2.38,3.88,6.65,6.48,11.53,6.48s9.05-2.54,11.45-6.34c1.98,1.14,4.27,1.8,6.72,1.8,6.95,0,12.67-5.24,13.44-11.98.03,0,.06,0,.1,0,7.48,0,13.54-6.06,13.54-13.54,0-1.99-.44-3.87-1.21-5.57,5.68-1.61,9.84-6.82,9.84-13.01Z"/>
    <path class="st6" d="M166.61,214.03s-5.39,24.48,16.85,64.2h42.45l16.74-64.2h-76.04Z"/>
    <path class="st13" d="M220.71,368.29s-46.07,25.27-71.61,39.29c-25.55,14.03-56.86,58.2-69.22,108.08-12.36,49.88-28.02,169.22-28.02,169.22h356.01l-9.42-169.2c-3.01-42.62-22.37-80.68-51.83-101.89l-61.96-44.62-63.95-.89Z"/>
    <path class="st10" d="M137.56,684.89h238.58l-10.71-137.01c-1.68-15.86-5.72-29.38-8.64-37.56-2.21-6.18-2.83-13.08-1.9-19.75,4.34-31.36,10.82-47.38,14.57-54.48-6.67-8.64-14.33-16.17-22.83-22.29l-61.96-44.62-63.95-.89s-46.07,25.27-71.61,39.29c-10.77,5.91-22.55,17.19-33.52,31.98,28.06,14.6,42.14,84.31,36.22,126.5l-14.24,118.82Z"/>
    <path class="st11" d="M206.11,287.56l-2.18,88.01c-.1,3.94,2.25,7.53,5.91,8.99,12.64,5.06,42.86,14.28,69.59.32,3.15-1.64,5.15-4.87,5.15-8.42v-44.22l-78.46-44.69Z"/>
    <path class="st14" d="M227.68,310.97s2.93,26.72,26.06,39.62c17.96,10.02,40.06-3.62,40.06-24.18v-1.94l-66.12-13.5Z"/>
    <path class="st11" d="M321.72,214.03l-7.19,62.13s7.19,30.67-10.74,52.44c-15.42,18.72-75.92,26.69-91.71-21.82-3.64-11.17-5.98-19.23-5.98-19.23l1.3-26.24s24.42-15.85,18.97-47.29h95.35Z"/>
    <circle class="st17" cx="236.63" cy="291.09" r="12.85"/>
    <path class="st16" d="M284.57,302.46s-3.9-10.05-14.38-5.37c-9.27-4.59-19.68,2.31-19.68,2.31,0,0,1.58,15.36,18.47,15.36,15.93,0,15.59-12.3,15.59-12.3Z"/>
    <path class="st18" d="M217.25,275.75c0-4.4-1.25-8.72-3.68-12.39-8-12.08-18.06-20.72-32.18-18.93-16.37,2.08-16.65,32.89,6.5,48.06,11.34,7.43,21.48,2.64,26.33-.7,1.92-1.32,3.03-3.51,3.03-5.84v-10.21Z"/>
    <path class="st4" d="M180.87,259.5c10.65-5.46,21.62,5.44,26.5,19.49"/>
    <line class="st4" x1="189.19" y1="273.53" x2="196.6" y2="262.2"/>
    <path class="st12" d="M183.76,289.38c.95.8,1.97,1.57,3.02,2.31-4.47,3.7-7.16,9.2-7.16,15.14,0,10.87,8.84,19.71,19.71,19.71s19.71-8.84,19.71-19.71-8.84-19.71-19.71-19.71c-1.02,0-1.85-.83-1.85-1.85s.83-1.85,1.85-1.85c12.9,0,23.4,10.5,23.4,23.4s-10.5,23.4-23.4,23.4-23.4-10.5-23.4-23.4c0-6.77,2.91-13.07,7.83-17.46Z"/>
    <path class="st6" d="M292.02,263.31c0,3.73,3.02,6.75,6.76,6.75s6.75-3.02,6.75-6.75-3.02-6.76-6.75-6.76-6.76,3.02-6.76,6.76Z"/>
    <path class="st6" d="M243.86,263.31c0,3.73,3.02,6.75,6.75,6.75s6.76-3.02,6.76-6.75-3.02-6.76-6.76-6.76-6.75,3.02-6.75,6.76Z"/>
    <path class="st5" d="M279.2,262.2l-2.25,11.07,4.26,7.94c1.53,2.86-.77,6.1-4.55,6.45-3.1.29-6.73.16-9.93-1.19"/>
    <path class="st2" d="M262.57,246.11s-9.35-2.53-23.9,0"/>
    <path class="st2" d="M310.72,246.7s-9.35-2.53-23.9,0"/>
    <path class="st4" d="M287.69,301.42c-12.12,3.12-26.33,5.09-42.61-4.99"/>
    <line class="st4" x1="247.68" y1="292.41" x2="242.65" y2="298.65"/>
    <path class="st6" d="M239.28,232.55c0-4.51-2.43-8.48-6.09-10.78,2.61-2.35,4.25-5.68,4.25-9.38,0-5.66-3.82-10.46-9.11-12.18.2-.88.31-1.79.31-2.72,0-7.11-6.01-12.87-13.42-12.87-.79,0-1.56.08-2.31.2-1.67-5.29-6.78-9.15-12.84-9.15-2.3,0-4.47.56-6.37,1.54-2.43-3.3-6.43-5.47-10.97-5.47s-8.83,2.32-11.23,5.83c-2.04-1.2-4.43-1.9-6.99-1.9-7.41,0-13.42,5.76-13.42,12.87,0,.06,0,.11,0,.17-.67-.1-1.36-.17-2.06-.17-7.41,0-13.42,5.76-13.42,12.87,0,1.54.3,3.01.81,4.37-5.21,1.77-8.94,6.52-8.94,12.12,0,4.94,2.91,9.23,7.16,11.38-2.28,2.31-3.68,5.41-3.68,8.84,0,5.53,3.64,10.23,8.74,12.05-.22.92-.35,1.88-.35,2.87,0,7.11,6.01,12.87,13.42,12.87.17,0,.33-.02.49-.02,1.56,5.45,6.75,9.45,12.92,9.45,3.1,0,5.95-1.02,8.22-2.71,2.36,3.69,6.59,6.16,11.43,6.16s8.98-2.41,11.35-6.03c1.96,1.08,4.24,1.71,6.66,1.71,6.89,0,12.56-4.98,13.32-11.4.03,0,.06,0,.09,0,7.41,0,13.42-5.76,13.42-12.87,0-1.89-.44-3.68-1.2-5.3,5.63-1.53,9.76-6.49,9.76-12.38Z"/>
    <path class="st6" d="M280.79,198.55c0-3.83-2.43-7.2-6.09-9.15,2.61-1.99,4.25-4.82,4.25-7.97,0-4.81-3.82-8.88-9.11-10.35.2-.75.31-1.52.31-2.31,0-6.04-6.01-10.93-13.42-10.93-.79,0-1.56.07-2.31.17-1.67-4.49-6.78-7.77-12.84-7.77-2.3,0-4.47.47-6.37,1.31-2.43-2.81-6.43-4.64-10.97-4.64s-8.83,1.97-11.23,4.95c-2.04-1.02-4.43-1.62-6.99-1.62-7.41,0-13.42,4.89-13.42,10.93,0,.05,0,.09,0,.14-.67-.08-1.36-.14-2.06-.14-7.41,0-13.42,4.89-13.42,10.93,0,1.31.3,2.55.81,3.71-5.21,1.5-8.94,5.54-8.94,10.3,0,4.2,2.91,7.84,7.16,9.67-2.28,1.96-3.68,4.6-3.68,7.51,0,4.7,3.64,8.69,8.74,10.24-.22.79-.35,1.6-.35,2.44,0,6.04,6.01,10.93,13.42,10.93.17,0,.33-.02.49-.02,1.56,4.62,6.75,8.03,12.92,8.03,3.1,0,5.95-.87,8.22-2.3,2.36,3.13,6.59,5.23,11.43,5.23s8.98-2.05,11.35-5.12c1.96.92,4.24,1.45,6.66,1.45,6.89,0,12.56-4.23,13.32-9.68.03,0,.06,0,.09,0,7.41,0,13.42-4.89,13.42-10.93,0-1.61-.44-3.13-1.2-4.5,5.63-1.3,9.76-5.51,9.76-10.51Z"/>
    <path class="st6" d="M326.49,190.19c0-3.83-2.43-7.2-6.09-9.15,2.61-1.99,4.25-4.82,4.25-7.97,0-4.81-3.82-8.88-9.11-10.35.2-.75.31-1.52.31-2.31,0-6.04-6.01-10.93-13.42-10.93-.79,0-1.56.07-2.31.17-1.67-4.49-6.78-7.77-12.84-7.77-2.3,0-4.47.47-6.37,1.31-2.43-2.81-6.43-4.64-10.97-4.64s-8.83,1.97-11.23,4.95c-2.04-1.02-4.43-1.62-6.99-1.62-7.41,0-13.42,4.89-13.42,10.93,0,.05,0,.09,0,.14-.67-.08-1.36-.14-2.06-.14-7.41,0-13.42,4.89-13.42,10.93,0,1.31.3,2.55.81,3.71-5.21,1.5-8.94,5.54-8.94,10.3,0,4.2,2.91,7.84,7.16,9.67-2.28,1.96-3.68,4.6-3.68,7.51,0,4.7,3.64,8.69,8.74,10.24-.22.79-.35,1.6-.35,2.44,0,6.04,6.01,10.93,13.42,10.93.17,0,.33-.02.49-.02,1.56,4.62,6.75,8.03,12.92,8.03,3.1,0,5.95-.87,8.22-2.3,2.36,3.13,6.59,5.23,11.43,5.23s8.98-2.05,11.35-5.12c1.96.92,4.24,1.45,6.66,1.45,6.89,0,12.56-4.23,13.32-9.68.03,0,.06,0,.09,0,7.41,0,13.42-4.89,13.42-10.93,0-1.61-.44-3.13-1.2-4.5,5.63-1.3,9.76-5.51,9.76-10.51Z"/>
    <path class="st6" d="M226.11,290.57c0-4.75-2.45-8.92-6.15-11.33,2.63-2.47,4.29-5.97,4.29-9.86,0-5.95-3.85-11-9.19-12.81.2-.92.31-1.88.31-2.86,0-7.48-6.06-13.54-13.54-13.54-.79,0-1.57.08-2.33.21-1.68-5.56-6.84-9.62-12.95-9.62-2.32,0-4.51.59-6.42,1.62-2.45-3.47-6.49-5.75-11.06-5.75s-8.9,2.44-11.32,6.13c-2.06-1.26-4.47-2-7.06-2-7.48,0-13.54,6.06-13.54,13.54,0,.06,0,.12,0,.18-.68-.1-1.37-.18-2.07-.18-7.48,0-13.54,6.06-13.54,13.54,0,1.62.3,3.16.82,4.6-5.25,1.86-9.02,6.86-9.02,12.75,0,5.2,2.93,9.7,7.23,11.97-2.3,2.43-3.72,5.69-3.72,9.3,0,5.81,3.67,10.76,8.82,12.67-.22.97-.35,1.98-.35,3.02,0,7.48,6.06,13.54,13.54,13.54.17,0,.33-.02.5-.03,1.58,5.73,6.81,9.94,13.04,9.94,3.13,0,6-1.07,8.29-2.85,2.38,3.88,6.65,6.48,11.53,6.48s9.05-2.54,11.45-6.34c1.98,1.14,4.27,1.8,6.72,1.8,6.95,0,12.67-5.24,13.44-11.98.03,0,.06,0,.1,0,7.48,0,13.54-6.06,13.54-13.54,0-1.99-.44-3.87-1.21-5.57,5.68-1.61,9.84-6.82,9.84-13.01Z"/>
    <path class="st6" d="M237.25,344.45c0-4.75-2.45-8.92-6.15-11.33,2.63-2.47,4.29-5.97,4.29-9.86,0-5.95-3.85-11-9.19-12.81.2-.92.31-1.88.31-2.86,0-7.48-6.06-13.54-13.54-13.54-.79,0-1.57.08-2.33.21-1.68-5.56-6.84-9.62-12.95-9.62-2.32,0-4.51.59-6.42,1.62-2.45-3.47-6.49-5.75-11.06-5.75s-8.9,2.44-11.32,6.13c-2.06-1.26-4.47-2-7.06-2-7.48,0-13.54,6.06-13.54,13.54,0,.06,0,.12,0,.18-.68-.1-1.37-.18-2.07-.18-7.48,0-13.54,6.06-13.54,13.54,0,1.62.3,3.16.82,4.6-5.25,1.86-9.02,6.86-9.02,12.75,0,5.2,2.93,9.7,7.23,11.97-2.3,2.43-3.72,5.69-3.72,9.3,0,5.81,3.67,10.76,8.82,12.67-.22.97-.35,1.98-.35,3.02,0,7.48,6.06,13.54,13.54,13.54.17,0,.33-.02.5-.03,1.58,5.73,6.81,9.94,13.04,9.94,3.13,0,6-1.07,8.29-2.85,2.38,3.88,6.65,6.48,11.53,6.48s9.05-2.54,11.45-6.34c1.98,1.14,4.27,1.8,6.72,1.8,6.95,0,12.67-5.24,13.44-11.98.03,0,.06,0,.1,0,7.48,0,13.54-6.06,13.54-13.54,0-1.99-.44-3.87-1.21-5.57,5.68-1.61,9.84-6.82,9.84-13.01Z"/>
    <path class="st6" d="M371.35,200.09c0-3.83-2.3-7.2-5.78-9.15,2.48-1.99,4.03-4.82,4.03-7.97,0-4.81-3.62-8.88-8.64-10.35.19-.75.29-1.52.29-2.31,0-6.04-5.7-10.93-12.73-10.93-.75,0-1.48.07-2.19.17-1.58-4.49-6.43-7.77-12.18-7.77-2.19,0-4.24.47-6.04,1.31-2.3-2.81-6.1-4.64-10.4-4.64s-8.38,1.97-10.65,4.95c-1.93-1.02-4.2-1.62-6.64-1.62-7.03,0-12.73,4.89-12.73,10.93,0,.05,0,.09,0,.14-.64-.08-1.29-.14-1.95-.14-7.03,0-12.73,4.89-12.73,10.93,0,1.31.28,2.55.77,3.71-4.94,1.5-8.48,5.54-8.48,10.3,0,4.2,2.76,7.84,6.8,9.67-2.16,1.96-3.49,4.6-3.49,7.51,0,4.7,3.45,8.69,8.29,10.24-.21.79-.33,1.6-.33,2.44,0,6.04,5.7,10.93,12.73,10.93.16,0,.31-.02.47-.02,1.48,4.62,6.4,8.03,12.26,8.03,2.94,0,5.64-.87,7.8-2.3,2.24,3.13,6.25,5.23,10.85,5.23s8.52-2.05,10.77-5.12c1.86.92,4.02,1.45,6.32,1.45,6.54,0,11.91-4.23,12.64-9.68.03,0,.06,0,.09,0,7.03,0,12.73-4.89,12.73-10.93,0-1.61-.41-3.13-1.14-4.5,5.34-1.3,9.26-5.51,9.26-10.51Z"/>
  </g>
</svg>
