<?xml version="1.0" encoding="UTF-8"?>
<svg id="Layer_1" xmlns="http://www.w3.org/2000/svg" xmlns:xlink="http://www.w3.org/1999/xlink" version="1.1" viewBox="0 0 1080 1080">
  <defs>
    <style>
      .st0, .st1 {
        fill: none;
      }

      .st2 {
        fill: #181919;
      }

      .st3 {
        fill: #bdd670;
      }

      .st4 {
        fill: #9d4c3c;
      }

      .st5 {
        fill: #fff;
      }

      .st6 {
        fill: #b66f53;
      }

      .st7 {
        fill: #381c13;
      }

      .st8 {
        fill: #f68233;
      }

      .st9 {
        fill: #773a32;
      }

      .st1 {
        stroke: #181919;
        stroke-linecap: round;
        stroke-linejoin: round;
        stroke-width: 2px;
      }

      .st10 {
        fill: #933728;
      }

      .st11 {
        fill: #d06139;
      }

      .st12 {
        clip-path: url(#clippath);
      }
    </style>
    <clipPath id="clippath">
      <circle class="st0" cx="540" cy="540" r="540"/>
    </clipPath>
  </defs>
  <g class="st12">
    <circle class="st8" cx="540" cy="540" r="540"/>
    <path class="st2" d="M822.11,450.25c0-10.22-5.27-19.2-13.24-24.41,5.67-5.32,9.23-12.86,9.23-21.25,0-12.82-8.29-23.69-19.79-27.59.43-1.99.67-4.05.67-6.17,0-16.1-13.05-29.16-29.16-29.16-1.71,0-3.38.18-5.01.46-3.62-11.99-14.74-20.72-27.9-20.72-5.01,0-9.71,1.26-13.83,3.49-5.28-7.48-13.97-12.38-23.82-12.38s-19.18,5.26-24.39,13.2c-4.43-2.72-9.62-4.31-15.2-4.31-16.1,0-29.16,13.05-29.16,29.16,0,.13.02.25.02.38-1.46-.23-2.94-.38-4.47-.38-16.1,0-29.16,13.05-29.16,29.16,0,3.48.64,6.81,1.76,9.91-11.31,4.01-19.42,14.77-19.42,27.46,0,11.19,6.31,20.9,15.56,25.78-4.95,5.22-8,12.26-8,20.03,0,12.52,7.91,23.17,18.99,27.3-.48,2.09-.75,4.27-.75,6.51,0,16.1,13.05,29.16,29.16,29.16.36,0,.71-.04,1.07-.05,3.4,12.33,14.67,21.4,28.08,21.4,6.74,0,12.92-2.31,17.86-6.14,5.13,8.36,14.32,13.95,24.84,13.95s19.5-5.46,24.66-13.66c4.27,2.45,9.2,3.87,14.48,3.87,14.97,0,27.29-11.29,28.95-25.81.07,0,.14.01.21.01,16.1,0,29.16-13.05,29.16-29.16,0-4.28-.95-8.34-2.61-12,12.23-3.47,21.2-14.69,21.2-28.03Z"/>
    <path class="st2" d="M811.84,608.13c0-10.22-5.27-19.2-13.24-24.41,5.67-5.32,9.23-12.86,9.23-21.25,0-12.82-8.29-23.69-19.79-27.59.43-1.99.67-4.05.67-6.17,0-16.1-13.05-29.16-29.16-29.16-1.71,0-3.38.18-5.01.46-3.62-11.99-14.74-20.72-27.9-20.72-5.01,0-9.71,1.26-13.83,3.49-5.28-7.48-13.97-12.38-23.82-12.38s-19.18,5.26-24.39,13.2c-4.43-2.72-9.62-4.31-15.2-4.31-16.1,0-29.16,13.05-29.16,29.16,0,.13.02.25.02.38-1.46-.23-2.94-.38-4.47-.38-16.1,0-29.16,13.05-29.16,29.16,0,3.48.64,6.81,1.76,9.91-11.31,4.01-19.42,14.77-19.42,27.46,0,11.19,6.31,20.9,15.56,25.78-4.95,5.22-8,12.26-8,20.03,0,12.52,7.91,23.17,18.99,27.3-.48,2.09-.75,4.27-.75,6.51,0,16.1,13.05,29.16,29.16,29.16.36,0,.71-.04,1.07-.05,3.4,12.33,14.67,21.4,28.08,21.4,6.74,0,12.92-2.31,17.86-6.14,5.13,8.36,14.32,13.95,24.84,13.95s19.5-5.46,24.66-13.66c4.27,2.45,9.2,3.87,14.48,3.87,14.97,0,27.29-11.29,28.95-25.81.07,0,.14.01.21.01,16.1,0,29.16-13.05,29.16-29.16,0-4.28-.95-8.34-2.61-12,12.23-3.47,21.2-14.69,21.2-28.03Z"/>
    <path class="st2" d="M356.3,336.55s-11.61,52.73,36.29,138.29h91.45l36.06-138.29h-163.79Z"/>
    <path class="st6" d="M472.82,668.82s-99.23,54.42-154.26,84.64c-55.03,30.22-122.48,125.36-149.11,232.81-26.63,107.45-60.35,364.51-60.35,364.51h766.86l-20.29-364.46c-6.47-91.8-48.18-173.78-111.64-219.48l-133.46-96.11-137.75-1.92Z"/>
    <path class="st3" d="M293.71,1350.78h513.9l-23.08-295.12c-3.61-34.17-12.33-63.29-18.62-80.9-4.75-13.31-6.09-28.17-4.1-42.54,9.35-67.55,23.31-102.05,31.39-117.35-14.37-18.6-30.86-34.83-49.18-48.02l-133.46-96.11-137.75-1.92s-99.23,54.42-154.26,84.64c-23.19,12.74-48.58,37.03-72.2,68.89,60.44,31.45,90.76,181.6,78.02,272.49l-30.67,255.94Z"/>
    <path class="st4" d="M441.37,494.93l-4.7,189.58c-.21,8.48,4.84,16.21,12.72,19.37,27.23,10.9,92.32,30.77,149.9.69,6.78-3.54,11.09-10.5,11.09-18.14v-95.24l-169.01-96.26Z"/>
    <path class="st7" d="M487.84,545.36s6.32,57.55,56.14,85.35c38.68,21.58,86.28-7.8,86.28-52.09v-4.18l-142.42-29.08Z"/>
    <path class="st4" d="M690.41,336.55l-15.49,133.84s15.49,66.06-23.12,112.96c-33.21,40.33-163.53,57.5-197.55-47.01-7.83-24.06-12.87-41.41-12.87-41.41l2.8-56.52s52.61-34.14,40.85-101.85h205.39Z"/>
    <circle class="st10" cx="507.11" cy="502.52" r="27.68"/>
    <path class="st9" d="M610.38,527.01s-8.4-21.64-30.97-11.57c-19.96-9.89-42.4,4.97-42.4,4.97,0,0,3.41,33.09,39.79,33.09,34.32,0,33.58-26.49,33.58-26.49Z"/>
    <path class="st11" d="M465.37,469.49c0-9.47-2.69-18.79-7.92-26.69-17.23-26.02-38.9-44.64-69.31-40.78-35.26,4.48-35.85,70.85,13.99,103.53,24.42,16.01,46.26,5.68,56.72-1.5,4.13-2.84,6.52-7.57,6.52-12.58v-21.99Z"/>
    <path class="st1" d="M387.02,434.49c22.95-11.75,46.56,11.71,57.08,41.97"/>
    <line class="st1" x1="404.93" y1="464.71" x2="420.89" y2="440.29"/>
    <path class="st5" d="M393.24,498.85c2.05,1.73,4.24,3.39,6.51,4.99-9.62,7.98-15.41,19.82-15.41,32.62,0,23.41,19.04,42.45,42.45,42.45s42.45-19.05,42.45-42.45-19.04-42.45-42.45-42.45c-2.2,0-3.98-1.78-3.98-3.98s1.78-3.98,3.98-3.98c27.8,0,50.41,22.61,50.41,50.41s-22.62,50.41-50.41,50.41-50.41-22.62-50.41-50.41c0-14.58,6.27-28.16,16.86-37.6Z"/>
    <path class="st2" d="M626.42,442.7c0,8.04,6.51,14.55,14.55,14.55s14.55-6.51,14.55-14.55-6.51-14.55-14.55-14.55-14.55,6.51-14.55,14.55Z"/>
    <path class="st2" d="M522.7,442.7c0,8.04,6.51,14.55,14.55,14.55s14.55-6.51,14.55-14.55-6.51-14.55-14.55-14.55-14.55,6.51-14.55,14.55Z"/>
    <path class="st7" d="M587.64,498.64c-6.38,0-12.06-1.04-16.94-3.09-1.64-.69-2.42-2.59-1.72-4.23s2.59-2.41,4.23-1.72c5.37,2.27,12.04,3.05,19.83,2.33,3.24-.3,6.03-1.92,7.27-4.22.6-1.12,1.09-2.88,0-4.93l-9.18-17.11c-.36-.66-.47-1.43-.32-2.17l4.85-23.84c.36-1.75,2.07-2.88,3.81-2.52,1.75.36,2.88,2.06,2.52,3.81l-4.62,22.7,8.63,16.08c1.88,3.51,1.89,7.54,0,11.04-2.29,4.25-6.91,7.09-12.36,7.6-2.06.19-4.06.29-5.99.29Z"/>
    <path class="st2" d="M563,408.88c-.28,0-.56-.04-.84-.11-.32-.08-20.03-5.16-50.09.06-1.75.31-3.43-.87-3.74-2.63-.31-1.76.87-3.43,2.63-3.74,31.68-5.5,52.03-.17,52.88.06,1.72.47,2.74,2.24,2.28,3.96-.39,1.44-1.69,2.39-3.12,2.39Z"/>
    <path class="st2" d="M666.72,410.14c-.28,0-.56-.04-.84-.11-.32-.08-20.03-5.16-50.09.06-1.74.31-3.43-.87-3.74-2.63-.31-1.76.87-3.43,2.63-3.74,31.68-5.5,52.03-.17,52.88.06,1.72.47,2.74,2.24,2.28,3.96-.39,1.44-1.69,2.39-3.12,2.39Z"/>
    <path class="st2" d="M579.89,532.38c-17.31,0-35.77-4.18-55.71-16.52-1.01-.63-1.32-1.95-.7-2.96.62-1.01,1.95-1.33,2.96-.7,33.77,20.91,63.27,17.4,90.11,10.5,1.16-.3,2.33.4,2.62,1.55.3,1.15-.4,2.33-1.55,2.62-12.01,3.09-24.54,5.52-37.74,5.52Z"/>
    <path class="st2" d="M520.09,520.96c-.47,0-.95-.16-1.35-.48-.93-.75-1.07-2.1-.33-3.03l10.82-13.43c.75-.92,2.1-1.07,3.03-.33.93.75,1.07,2.1.33,3.03l-10.82,13.43c-.43.53-1.05.8-1.68.8Z"/>
    <path class="st2" d="M512.83,376.43c0-9.72-5.23-18.27-13.12-23.22,5.62-5.06,9.16-12.23,9.16-20.21,0-12.2-8.22-22.53-19.62-26.24.43-1.89.66-3.85.66-5.86,0-15.31-12.94-27.73-28.91-27.73-1.7,0-3.35.17-4.97.44-3.59-11.4-14.61-19.71-27.67-19.71-4.96,0-9.63,1.2-13.71,3.32-5.23-7.12-13.85-11.78-23.62-11.78s-19.02,5-24.18,12.56c-4.39-2.58-9.54-4.1-15.07-4.1-15.96,0-28.91,12.42-28.91,27.73,0,.12.02.24.02.36-1.45-.21-2.92-.36-4.43-.36-15.96,0-28.91,12.42-28.91,27.73,0,3.31.64,6.48,1.75,9.42-11.21,3.81-19.26,14.05-19.26,26.11,0,10.64,6.26,19.88,15.43,24.52-4.91,4.97-7.93,11.66-7.93,19.05,0,11.91,7.84,22.04,18.83,25.96-.47,1.99-.75,4.06-.75,6.19,0,15.31,12.94,27.73,28.91,27.73.36,0,.71-.04,1.07-.05,3.37,11.73,14.54,20.36,27.84,20.36,6.68,0,12.81-2.19,17.71-5.84,5.08,7.95,14.2,13.27,24.63,13.27s19.34-5.2,24.45-12.99c4.23,2.33,9.12,3.68,14.35,3.68,14.84,0,27.05-10.73,28.7-24.55.07,0,.14,0,.2,0,15.96,0,28.91-12.42,28.91-27.73,0-4.07-.94-7.93-2.58-11.42,12.13-3.3,21.02-13.97,21.02-26.66Z"/>
    <path class="st2" d="M602.25,303.2c0-8.26-5.23-15.51-13.12-19.72,5.62-4.3,9.16-10.39,9.16-17.16,0-10.36-8.22-19.13-19.62-22.29.43-1.61.66-3.27.66-4.98,0-13.01-12.94-23.55-28.91-23.55-1.7,0-3.35.14-4.97.37-3.59-9.68-14.61-16.74-27.67-16.74-4.96,0-9.63,1.02-13.71,2.82-5.23-6.04-13.85-10-23.62-10s-19.02,4.25-24.18,10.67c-4.39-2.19-9.54-3.48-15.07-3.48-15.96,0-28.91,10.54-28.91,23.55,0,.1.02.2.02.31-1.45-.18-2.92-.31-4.43-.31-15.96,0-28.91,10.54-28.91,23.55,0,2.81.64,5.5,1.75,8-11.21,3.24-19.26,11.93-19.26,22.18,0,9.04,6.26,16.88,15.43,20.83-4.91,4.22-7.93,9.9-7.93,16.18,0,10.11,7.84,18.71,18.83,22.05-.47,1.69-.75,3.45-.75,5.25,0,13.01,12.94,23.55,28.91,23.55.36,0,.71-.03,1.07-.04,3.37,9.96,14.54,17.29,27.84,17.29,6.68,0,12.81-1.86,17.71-4.96,5.08,6.75,14.2,11.27,24.63,11.27s19.34-4.41,24.45-11.03c4.23,1.98,9.12,3.13,14.35,3.13,14.84,0,27.05-9.12,28.7-20.85.07,0,.14,0,.2,0,15.96,0,28.91-10.54,28.91-23.55,0-3.46-.94-6.74-2.58-9.69,12.13-2.8,21.02-11.86,21.02-22.64Z"/>
    <path class="st2" d="M700.69,285.18c0-8.26-5.23-15.51-13.12-19.72,5.62-4.3,9.16-10.39,9.16-17.16,0-10.36-8.22-19.13-19.62-22.29.43-1.61.66-3.27.66-4.98,0-13.01-12.94-23.55-28.91-23.55-1.7,0-3.35.14-4.97.37-3.59-9.68-14.61-16.74-27.67-16.74-4.96,0-9.63,1.02-13.71,2.82-5.23-6.04-13.85-10-23.62-10s-19.02,4.25-24.18,10.67c-4.39-2.19-9.54-3.48-15.07-3.48-15.96,0-28.91,10.54-28.91,23.55,0,.1.02.2.02.31-1.45-.18-2.92-.31-4.43-.31-15.96,0-28.91,10.54-28.91,23.55,0,2.81.64,5.5,1.75,8-11.21,3.24-19.26,11.93-19.26,22.18,0,9.04,6.26,16.88,15.43,20.83-4.91,4.22-7.93,9.9-7.93,16.18,0,10.11,7.84,18.71,18.83,22.05-.47,1.69-.75,3.45-.75,5.25,0,13.01,12.94,23.55,28.91,23.55.36,0,.71-.03,1.07-.04,3.37,9.96,14.54,17.29,27.84,17.29,6.68,0,12.81-1.86,17.71-4.96,5.08,6.75,14.2,11.27,24.63,11.27s19.34-4.41,24.45-11.03c4.23,1.98,9.12,3.13,14.35,3.13,14.84,0,27.05-9.12,28.7-20.85.07,0,.14,0,.2,0,15.96,0,28.91-10.54,28.91-23.55,0-3.46-.94-6.74-2.58-9.69,12.13-2.8,21.02-11.86,21.02-22.64Z"/>
    <path class="st2" d="M484.45,501.42c0-10.22-5.27-19.2-13.24-24.41,5.67-5.32,9.23-12.86,9.23-21.25,0-12.82-8.29-23.69-19.79-27.59.43-1.99.67-4.05.67-6.17,0-16.1-13.05-29.16-29.16-29.16-1.71,0-3.38.18-5.01.46-3.62-11.99-14.74-20.72-27.9-20.72-5.01,0-9.71,1.26-13.83,3.49-5.28-7.48-13.97-12.38-23.82-12.38s-19.18,5.26-24.39,13.2c-4.43-2.72-9.62-4.31-15.2-4.31-16.1,0-29.16,13.05-29.16,29.16,0,.13.02.25.02.38-1.46-.23-2.94-.38-4.47-.38-16.1,0-29.16,13.05-29.16,29.16,0,3.48.64,6.81,1.76,9.91-11.31,4.01-19.42,14.77-19.42,27.46,0,11.19,6.31,20.9,15.56,25.78-4.95,5.22-8,12.26-8,20.03,0,12.52,7.91,23.17,18.99,27.3-.48,2.09-.75,4.27-.75,6.51,0,16.1,13.05,29.16,29.16,29.16.36,0,.71-.04,1.07-.05,3.4,12.33,14.67,21.4,28.08,21.4,6.74,0,12.92-2.31,17.86-6.14,5.13,8.36,14.32,13.95,24.84,13.95s19.5-5.46,24.66-13.66c4.27,2.45,9.2,3.87,14.48,3.87,14.97,0,27.29-11.29,28.95-25.81.07,0,.14.01.21.01,16.1,0,29.16-13.05,29.16-29.16,0-4.28-.95-8.34-2.61-12,12.23-3.47,21.2-14.69,21.2-28.03Z"/>
    <path class="st2" d="M508.45,617.47c0-10.22-5.27-19.2-13.24-24.41,5.67-5.32,9.23-12.86,9.23-21.25,0-12.82-8.29-23.69-19.79-27.59.43-1.99.67-4.05.67-6.17,0-16.1-13.05-29.16-29.16-29.16-1.71,0-3.38.18-5.01.46-3.62-11.99-14.74-20.72-27.9-20.72-5.01,0-9.71,1.26-13.83,3.49-5.28-7.48-13.97-12.38-23.82-12.38s-19.18,5.26-24.39,13.2c-4.43-2.72-9.62-4.31-15.2-4.31-16.1,0-29.16,13.05-29.16,29.16,0,.13.02.25.02.38-1.46-.23-2.94-.38-4.47-.38-16.1,0-29.16,13.05-29.16,29.16,0,3.48.64,6.81,1.76,9.91-11.31,4.01-19.42,14.77-19.42,27.46,0,11.19,6.31,20.9,15.56,25.78-4.95,5.22-8,12.26-8,20.03,0,12.52,7.91,23.17,18.99,27.3-.48,2.09-.75,4.27-.75,6.51,0,16.1,13.05,29.16,29.16,29.16.36,0,.71-.04,1.07-.05,3.4,12.33,14.67,21.4,28.08,21.4,6.74,0,12.92-2.31,17.86-6.14,5.13,8.36,14.32,13.95,24.84,13.95s19.5-5.46,24.66-13.66c4.27,2.45,9.2,3.87,14.48,3.87,14.97,0,27.29-11.29,28.95-25.81.07,0,.14.01.21.01,16.1,0,29.16-13.05,29.16-29.16,0-4.28-.95-8.34-2.61-12,12.23-3.47,21.2-14.69,21.2-28.03Z"/>
    <path class="st2" d="M797.32,306.52c0-8.26-4.96-15.51-12.45-19.72,5.33-4.3,8.68-10.39,8.68-17.16,0-10.36-7.8-19.13-18.62-22.29.4-1.61.63-3.27.63-4.98,0-13.01-12.28-23.55-27.42-23.55-1.61,0-3.18.14-4.71.37-3.4-9.68-13.86-16.74-26.25-16.74-4.71,0-9.14,1.02-13.01,2.82-4.96-6.04-13.14-10-22.41-10s-18.04,4.25-22.94,10.67c-4.17-2.19-9.05-3.48-14.29-3.48-15.14,0-27.42,10.54-27.42,23.55,0,.1.02.2.02.31-1.37-.18-2.77-.31-4.2-.31-15.14,0-27.42,10.54-27.42,23.55,0,2.81.6,5.5,1.66,8-10.64,3.24-18.27,11.93-18.27,22.18,0,9.04,5.94,16.88,14.64,20.83-4.65,4.22-7.53,9.9-7.53,16.18,0,10.11,7.44,18.71,17.86,22.05-.45,1.69-.71,3.45-.71,5.25,0,13.01,12.28,23.55,27.42,23.55.34,0,.67-.03,1.01-.04,3.2,9.96,13.79,17.29,26.41,17.29,6.34,0,12.15-1.86,16.8-4.96,4.82,6.75,13.47,11.27,23.36,11.27s18.34-4.41,23.2-11.03c4.02,1.98,8.66,3.13,13.62,3.13,14.08,0,25.66-9.12,27.23-20.85.07,0,.13,0,.19,0,15.14,0,27.42-10.54,27.42-23.55,0-3.46-.89-6.74-2.45-9.69,11.5-2.8,19.94-11.86,19.94-22.64Z"/>
  </g>
  <circle class="st0" cx="429.53" cy="518.24" r="250.69"/>
</svg>
